<?xml version="1.0" encoding="UTF-8"?>
<svg id="Ebene_1" xmlns="http://www.w3.org/2000/svg" version="1.1" viewBox="0 0 2000 500">
  <!-- Generator: Adobe Illustrator 29.1.0, SVG Export Plug-In . SVG Version: 2.1.0 Build 142)  -->
  <defs>
    <style>
      .st0 {
        fill: #41673d;
      }

      .st1 {
        fill: #f6f3ec;
      }

      .st2 {
        fill: #40663c;
      }

      .st3 {
        fill: #40653b;
      }

      .st4 {
        fill: #f9f6ef;
      }

      .st5 {
        fill: #41663c;
      }

      .st6 {
        fill: #3e663b;
      }

      .st7 {
        fill: #dde1d2;
      }

      .st8 {
        fill: #40683d;
      }

      .st9 {
        fill: #3f653b;
      }

      .st10 {
        fill: #f7f4ec;
      }
    </style>
  </defs>
  <path class="st2" d="M193,293.28c-1.91,2.51,16.05,8.19,18.3,9.48,35.36,20.25,42.67,67.86,21.69,101.55-35.8,57.47-134.82,31.21-191.47,37.34l-7.31-2.99,1.03-277.42c1.82-1.65,4.01-1.68,6.28-1.96,25.87-3.17,86.45-2.08,113.34.13,34.41,2.82,68.52,18.73,76.7,55.12,7.21,32.06-6.52,66.87-38.56,78.75ZM146.65,202.63c-18.68-2.33-41.59,1.72-60.76,0v74.15h62.82c10.51,0,25.94-11.84,29.33-22.17,8.51-25.95-4.02-48.56-31.39-51.97ZM85.9,398.3h69c.94,0,15.04-4.79,16.9-5.76,25.6-13.27,25.36-56.54-1.66-69.22-2.77-1.3-15.26-5.35-17.3-5.35h-66.94v80.32Z"/>
  <path class="st9" d="M858.25,251.03c2.09-7.46,36.48-6.44,42.78-3.78,7.07,2.99,3.02,15.65,5.61,21.28,26.05-32.35,69.69-36.87,99.95-7.25,2.66,2.6,8.55,13.96,12.27,11.36,20.33-39.1,86.6-41.38,110.91-4.79,2.65,4,10.64,22.71,10.64,26.43v144.17c0,.22-2.87,3.09-3.09,3.09h-44.28c.67-2.02-2.06-4.47-2.06-5.15v-121.52c0-14.29-15.98-27.43-29.93-27.89-12.85-.43-35.98,11.74-35.98,25.83v123.58c0,.36-4.78,5.15-5.15,5.15h-41.19c-9.4,0-3.42-42.33-3.5-48.4-.32-23.14.99-58.81-1.6-80.37-3.44-28.65-43.58-32.46-58.65-13.25-2.42,3.08-7.3,16.25-7.3,19.47v119.46c0,.22-2.87,3.09-3.09,3.09h-43.25c-.22,0-3.09-2.87-3.09-3.09v-187.42Z"/>
  <path class="st8" d="M549.33,379.75l3.02-4.12c13.8-35.69,18.49-86.84,33.89-120.61,6.13-13.44,39.52-12.26,49.32-3.73l38.35,128.5,33.82-130.46c3.19-5.07,43.26-5.89,46.54.68l-53.47,187.54c-5.95,6.2-45.92,6.22-51.54-.18l-35.92-118.55-4.29-2.9-35.28,120.25c-5.2,7.57-30.89,6.31-40.01,5.49-8.63-.78-13.11-2.1-15.44-11.34l-51.18-178.91c2.27-7.32,34.96-6.76,41.95-5.46,3.81.71,6.2,3.15,8.14,6.28l32.1,127.53Z"/>
  <path class="st2" d="M1556.45,357.1c-.19,42.48,44,63.57,79.35,41.24,14.69-9.28,13.39-20.07,33.93-13.4,49.03,15.91-14.21,53.11-38.7,58.06-79.33,16.04-133.8-35.78-125.8-115.51,10.44-104.04,168.02-120.52,188.67-12.04,1.54,8.09,5.9,34.24-1.47,38.59l-135.97,3.06ZM1556.46,324.15h87.53c5.34,0,1.72-12.44.89-15.32-14.22-49.47-89.05-34.88-88.42,15.32Z"/>
  <path class="st5" d="M1304.15,441.55c-6.57-1.84-5.31-15.09-5.17-20.6-43.73,46.22-144.54,26.77-128.82-49.55,10.3-50,86.1-43.7,123.53-47.02,11.65-44.58-35.58-53.78-65.38-32.83-4.45,3.13-10.38,11.58-14.83,12.03-5.95.6-30.1-8.36-32.93-14.5-6.67-14.46,26.56-35.76,38.16-40.09,34.59-12.91,92.69-10.65,114.97,22.98,1.96,2.96,10.64,22.36,10.64,24.37v142.11c0,.22-2.87,3.09-3.09,3.09-8.37,0-31.05,1.68-37.07,0ZM1296.94,357.1h-44.28c-1.2,0-13.89,3.67-16.06,4.54-22.51,9-24.15,35.41-1.39,43.81,32.8,12.11,69.46-11.23,61.73-48.34Z"/>
  <path class="st6" d="M349.1,242.37c80.92-8.76,127.49,58.47,108.98,133.69-8.9,36.19-41.58,65.43-78.94,69.35-143.88,15.08-151.34-189.91-30.03-203.04ZM357.26,281.43c-59.34,7.18-57.07,129.59,9.72,125.1,62.51-4.2,60.43-133.58-9.72-125.1Z"/>
  <path class="st5" d="M1984.84,190.28c2.68,124-158.16,179.62-236.78,85.4-15.63-18.74-31.57-53.67-31.05-78.3.24-11.28,22.28-12.67,31.94-13.37,43.49-3.13,84.87,12.09,127.69,14.58,36.32,2.12,72.69-1.39,108.2-8.32ZM1943.65,210.88c-24.63-1.22-50.68,1.62-75.14-.03-23.73-1.6-102.83-21.18-119.28-10.09-12.46,8.4,14.7,22.72,21.47,25.52,40.17,16.58,135.1,16.76,170.37-10.69,1.7-1.32,3.77.03,2.59-4.71Z"/>
  <path class="st2" d="M1441.12,245.88h42.22c11.68,0,7.45,43.25,0,43.25h-42.22c-.3,18.87.37,37.83.08,56.72-.22,14.16-7.82,41.89,5.02,52.48s33.5-1.88,41.34,6.03c5.04,5.09,5.77,30.79-2.69,34.6-19.61,8.81-66.8,7.73-82.96-8.67-23.08-23.41-7.49-105.32-12.57-137.78-2.32-7.08-22.57.85-27.52-9.55-2.04-4.29-2.03-28.49.84-32.13,4.91-6.23,26.97.23,26.97-5.98v-53.55c0-6.47,36.34-6.18,42.17-5.1,16.99,3.15,6.4,46.52,9.32,59.68Z"/>
  <path class="st3" d="M775.86,168.65c2.49-8.21,51.49-6.92,51.49,0v267.75c0,3.68-8.15,4.97-11.2,5.27-6.45.65-40.29,1.69-40.29-5.27V168.65Z"/>
  <path class="st0" d="M1854.44,44.23c3.96-1.03,5.57,1.59,7.94,3.87,7.01,6.72,32.53,45.43,36.05,54.56,7.39,19.18,1.55,40.86-16.49,51.64-37.34,22.29-82.71-11.23-66.77-52.35,2.37-6.11,35.89-56.84,39.27-57.72Z"/>
  <path class="st4" d="M85.9,398.3v-80.32h66.94c2.05,0,14.53,4.06,17.3,5.35,27.02,12.68,27.26,55.95,1.66,69.22-1.86.96-15.96,5.76-16.9,5.76h-69Z"/>
  <path class="st4" d="M146.65,202.63c27.36,3.41,39.89,26.02,31.39,51.97-3.39,10.33-18.82,22.17-29.33,22.17h-62.82v-74.15c19.17,1.72,42.08-2.33,60.76,0Z"/>
  <path class="st10" d="M1556.46,324.15c-.63-50.2,74.2-64.79,88.42-15.32.83,2.88,4.45,15.32-.89,15.32h-87.53Z"/>
  <path class="st1" d="M1296.94,357.1c7.73,37.11-28.93,60.45-61.73,48.34-22.76-8.4-21.12-34.8,1.39-43.81,2.17-.87,14.86-4.54,16.06-4.54h44.28Z"/>
  <path class="st4" d="M357.26,281.43c70.15-8.48,72.23,120.9,9.72,125.1-66.79,4.49-69.06-117.92-9.72-125.1Z"/>
  <path class="st7" d="M1943.65,210.88c1.18,4.74-.89,3.39-2.59,4.71-35.27,27.45-130.19,27.27-170.37,10.69-6.77-2.79-33.93-17.12-21.47-25.52,16.45-11.09,95.55,8.49,119.28,10.09,24.47,1.65,50.52-1.18,75.14.03Z"/>
</svg>